<?xml version="1.0" standalone="no"?><!DOCTYPE svg PUBLIC "-//W3C//DTD SVG 1.1//EN" "http://www.w3.org/Graphics/SVG/1.1/DTD/svg11.dtd"><svg t="1553509300426" class="icon" style="" viewBox="0 0 1024 1024" version="1.1" xmlns="http://www.w3.org/2000/svg" p-id="3070" xmlns:xlink="http://www.w3.org/1999/xlink" width="64" height="64"><defs><style type="text/css"></style></defs><path d="M791.68 76.864H232.32c-85.76 0-155.52 69.76-155.52 155.456v559.424a155.648 155.648 0 0 0 155.52 155.392h559.36c85.76 0 155.52-69.76 155.52-155.392V232.32a155.648 155.648 0 0 0-155.52-155.456z m117.12 714.88a117.184 117.184 0 0 1-117.12 116.992H232.32c-64.576 0-117.12-52.48-117.12-116.992V232.32c0-64.576 52.544-117.12 117.12-117.12h559.36c64.576 0 117.12 52.544 117.12 117.12v559.424z m-196.736-372.288a98.752 98.752 0 0 0 0-197.44c-54.464 0-98.752 44.224-98.752 98.688 0 12.608 2.624 24.576 6.912 35.648L472.192 455.808a144.832 144.832 0 0 0-113.536-55.552A145.728 145.728 0 0 0 213.12 545.792a145.728 145.728 0 0 0 145.536 145.536c51.52 0 96.64-27.008 122.496-67.52l128.704 65.472c1.408 0.64 3.008 0.768 4.48 1.024-0.384 3.52-1.088 6.848-1.088 10.368a98.688 98.688 0 1 0 98.752-98.752c-37.504 0-69.888 21.248-86.592 52.224L497.088 588.736c4.224-13.568 7.168-27.84 7.168-42.88 0-20.352-4.288-39.744-11.904-57.344l148.416-99.776c18.048 18.88 43.264 30.72 71.296 30.72z m0-159.04a60.352 60.352 0 1 1-0.256 120.704 60.352 60.352 0 0 1 0.256-120.704z m-353.408 392.576a107.264 107.264 0 0 1 0-214.336 107.264 107.264 0 0 1 0 214.336z m353.408-12.608a60.352 60.352 0 1 1-60.352 60.352c0-33.216 27.008-60.352 60.352-60.352z" fill="" p-id="3071"></path></svg>