<?xml version="1.0" standalone="no"?><!DOCTYPE svg PUBLIC "-//W3C//DTD SVG 1.1//EN" "http://www.w3.org/Graphics/SVG/1.1/DTD/svg11.dtd"><svg t="1552192282427" class="icon" style="" viewBox="0 0 1024 1024" version="1.1" xmlns="http://www.w3.org/2000/svg" p-id="2913" xmlns:xlink="http://www.w3.org/1999/xlink" width="200" height="200"><defs><style type="text/css"></style></defs><path d="M112 732.7c0 98.9 80.4 179.3 179.3 179.3 103.8 0 188.3-84.5 188.3-188.3V544.4H300.3c-103.8 0-188.3 84.5-188.3 188.3z m345.9-9c0 91.9-74.8 166.7-166.7 166.7-86.9 0-157.7-70.7-157.7-157.6 0-91.9 74.8-166.7 166.7-166.7h157.7v157.6zM723.7 544.4H544.4v179.3c0 103.8 84.5 188.3 188.3 188.3 98.9 0 179.3-80.4 179.3-179.3 0-103.8-84.5-188.3-188.3-188.3z m9 346c-91.9 0-166.7-74.8-166.7-166.7V566.1h157.7c91.9 0 166.7 74.8 166.7 166.7 0 86.8-70.8 157.6-157.7 157.6zM291.3 112C192.4 112 112 192.4 112 291.3c0 103.8 84.5 188.3 188.3 188.3h179.3V300.3c0-103.8-84.5-188.3-188.3-188.3z m166.6 345.9H300.3c-91.9 0-166.7-74.8-166.7-166.7 0-86.9 70.7-157.6 157.7-157.6 91.9 0 166.7 74.8 166.7 166.7v157.6zM912 291.3c0-98.9-80.4-179.3-179.3-179.3-103.8 0-188.3 84.5-188.3 188.3v179.3h179.3c103.8 0 188.3-84.5 188.3-188.3z m-345.9 9c0-91.9 74.8-166.7 166.7-166.7 86.9 0 157.7 70.7 157.7 157.6 0 91.9-74.8 166.7-166.7 166.7H566.1V300.3z" p-id="2914"></path><path d="M835.8 308.4c-5.8-1.4-11.7 2.2-13 8-1.7 7.2-4.3 14.2-7.5 20.8-2.6 5.3-0.4 11.8 4.9 14.5 1.5 0.8 3.2 1.1 4.8 1.1 4 0 7.8-2.2 9.7-6 3.9-8 7-16.5 9.1-25.3 1.4-5.9-2.2-11.7-8-13.1zM824.5 279.1c0.8 5.4 5.4 9.2 10.7 9.2 0.5 0 1.1 0 1.6-0.1 5.9-0.8 10-6.3 9.1-12.2-8.3-56.5-57.7-99.1-114.9-99.1-6 0-10.8 4.9-10.8 10.8s4.8 10.8 10.8 10.8c46.5 0 86.7 34.6 93.5 80.6z" p-id="2915"></path></svg>