<?xml version="1.0" standalone="no"?><!DOCTYPE svg PUBLIC "-//W3C//DTD SVG 1.1//EN" "http://www.w3.org/Graphics/SVG/1.1/DTD/svg11.dtd"><svg t="1552192527833" class="icon" style="" viewBox="0 0 1024 1024" version="1.1" xmlns="http://www.w3.org/2000/svg" p-id="8930" xmlns:xlink="http://www.w3.org/1999/xlink" width="200" height="200"><defs><style type="text/css"></style></defs><path d="M513.024 149.504c144.384 0 261.632 117.248 261.632 261.632 0 54.272-25.088 99.84-44.544 146.432-27.648 64.512-190.464 330.24-217.088 330.24-22.528 0-186.368-268.8-212.48-323.584-23.04-48.128-49.152-95.744-49.152-153.088-0.512-144.384 116.736-261.632 261.632-261.632m0-40.96C346.112 108.544 209.92 244.224 209.92 411.136c0 60.416 24.576 111.104 46.08 155.648 2.56 5.12 4.608 9.728 7.168 14.848 14.336 30.208 63.488 113.664 110.08 186.368 26.112 40.96 49.152 75.776 67.072 100.352 30.72 41.984 47.616 59.904 72.192 59.904 25.6 0 44.032-18.944 74.24-58.88 18.944-25.088 42.496-59.904 68.608-100.864 43.008-67.584 95.232-156.16 112.128-195.584 3.072-7.168 6.144-14.336 9.728-22.016 17.92-40.448 38.4-86.016 38.4-140.288 0-166.4-135.68-302.08-302.592-302.08z" fill="#4C4C4C" p-id="8931"></path><path d="M513.024 559.104c-83.456 0-151.552-68.096-151.552-151.552S429.568 256 513.024 256s151.552 68.096 151.552 151.552c0 12.288-1.536 24.064-4.096 35.84-2.56 10.752-13.824 17.92-24.576 14.848-10.752-2.56-17.92-13.824-14.848-24.576 2.048-8.704 3.072-17.408 3.072-26.112 0-60.928-49.664-110.592-110.592-110.592-60.928 0-110.592 49.664-110.592 110.592s49.664 110.592 110.592 110.592c24.576 0 47.616-7.68 67.072-22.528 9.216-6.656 22.016-5.12 28.672 4.096 6.656 9.216 5.12 22.016-4.096 28.672-27.136 19.968-58.88 30.72-92.16 30.72z" fill="#4C4C4C" p-id="8932"></path></svg>