<?xml version="1.0" standalone="no"?><!DOCTYPE svg PUBLIC "-//W3C//DTD SVG 1.1//EN" "http://www.w3.org/Graphics/SVG/1.1/DTD/svg11.dtd"><svg t="1552192455902" class="icon" style="" viewBox="0 0 1024 1024" version="1.1" xmlns="http://www.w3.org/2000/svg" p-id="6963" xmlns:xlink="http://www.w3.org/1999/xlink" width="200" height="200"><defs><style type="text/css"></style></defs><path d="M316.179614 353.886913c0 22.936385 20.682042 39.535435 49.2681 39.535435h289.311175c28.478612 0 49.250704-16.59905 49.250704-39.535435 0-45.351907-29.981848-83.155908-89.060385-112.526843v-29.362748c0-67.431785-46.031383-120.260991-104.863302-120.260991-58.796104 0-104.864326 52.741201-104.864326 120.172986v29.362749c-59.149145 29.458939-89.041966 67.26294-89.041966 112.614847z m114.604155-84.631516l10.589172-4.860705v-52.485375c0-47.880497 29.53978-84.021625 68.712965-84.021625 39.191604 0 68.730361 36.141128 68.730361 84.021625v52.485375l10.606568 4.860705c52.731992 23.988344 78.452793 51.698452 78.611406 84.375689-0.777713 1.042749-5.727445 3.641947-13.204743 3.641947H365.535719c-7.478322 0-12.428054-2.51938-13.027711-3.297093-0.177032-33.111119 25.526373-60.7322 78.275761-84.720543z m246.726287 365.899504v-6.080485c0-7.566326-6.169513-13.823843-13.806447-13.823844H356.413967c-7.566326 0-13.806447 6.169513-13.806447 13.823844v6.080485c0 7.567349 6.152117 13.824867 13.806447 13.824867h307.289642c7.636934-0.001023 13.806447-6.258541 13.806447-13.824867zM356.413967 710.054775c-7.566326 0-13.806447 6.169513-13.806447 13.806447v6.16849c0 7.567349 6.152117 13.824867 13.806447 13.824867h173.311231c7.566326 0 13.823843-6.169513 13.823844-13.824867v-6.16849c0-7.566326-6.16849-13.806447-13.823844-13.806447H356.413967z m321.096089-175.874613c0-7.557116-6.169513-13.814634-13.806447-13.814634H356.413967c-7.566326 0-13.806447 6.169513-13.806447 13.814634v6.169513c0 7.557116 6.152117 13.815657 13.806447 13.815657h307.289642c7.54893 0 13.806447-6.169513 13.806447-13.815657v-6.169513z m67.863621-353.984127h-98.181114c2.333138 10.1645 3.994987 20.594037 3.994988 31.713282v4.427846h94.186126c29.963429 0 54.28844 24.333198 54.28844 54.305837v563.225685c0 29.981848-24.325012 54.323233-54.28844 54.323233H274.831904c-29.980825 0-54.305837-24.341385-54.305837-54.323233V270.731004c0-29.972639 24.325012-54.305837 54.305837-54.305836h94.186126v-4.427846c0-11.119245 1.626034-21.548782 3.994987-31.713283h-98.181113c-49.868781 0-90.526783 40.569998-90.526783 90.535993v563.049676c0 49.867758 40.569998 90.526783 90.526783 90.526783h470.613404c49.867758 0 90.526783-40.552601 90.526783-90.526783V270.731004c-0.088004-49.956785-40.659025-90.534969-90.598414-90.534969z" p-id="6964"></path></svg>