<?xml version="1.0" standalone="no"?><!DOCTYPE svg PUBLIC "-//W3C//DTD SVG 1.1//EN" "http://www.w3.org/Graphics/SVG/1.1/DTD/svg11.dtd"><svg t="1552192349389" class="icon" style="" viewBox="0 0 1024 1024" version="1.1" xmlns="http://www.w3.org/2000/svg" p-id="4514" xmlns:xlink="http://www.w3.org/1999/xlink" width="200" height="200"><defs><style type="text/css"></style></defs><path d="M773.8 679.3H450.5c-59.7 0-111.4-40.5-125.7-98.4l-77-311c-9.8-39.5-45.1-67.1-85.8-67.1H94.3c-13.8 0-25-11.2-25-25s11.2-25 25-25H162c63.8 0 119 43.2 134.3 105.1l77 311c8.8 35.6 40.5 60.4 77.2 60.4h323.3c36.6 0 68.4-24.8 77.2-60.4l38.2-154.1c2.9-11.8 0.3-24.1-7.2-33.7-7.5-9.6-18.8-15.1-31-15.1H427.7c-13.8 0-25-11.2-25-25s11.2-25 25-25h423.2c27.7 0 53.3 12.5 70.4 34.3 17.1 21.8 23 49.7 16.4 76.6L899.5 581c-14.4 57.8-66 98.3-125.7 98.3z" p-id="4515"></path><path d="M410 800.3m-72.8 0a72.8 72.8 0 1 0 145.6 0 72.8 72.8 0 1 0-145.6 0Z" p-id="4516"></path><path d="M801.5 800.3m-72.8 0a72.8 72.8 0 1 0 145.6 0 72.8 72.8 0 1 0-145.6 0Z" p-id="4517"></path></svg>